<?xml version="1.0" encoding="UTF-8" standalone="no"?>
<!-- Created with Inkscape (http://www.inkscape.org/) -->

<svg
   width="56.434978mm"
   height="8.0234499mm"
   viewBox="0 0 56.434978 8.0234499"
   version="1.1"
   id="svg1"
   inkscape:version="1.4.2 (ebf0e940, 2025-05-08)"
   sodipodi:docname="inventiva_lab_letras.svg"
   xmlns:inkscape="http://www.inkscape.org/namespaces/inkscape"
   xmlns:sodipodi="http://sodipodi.sourceforge.net/DTD/sodipodi-0.dtd"
   xmlns="http://www.w3.org/2000/svg"
   xmlns:svg="http://www.w3.org/2000/svg">
  <sodipodi:namedview
     id="namedview1"
     pagecolor="#ffffff"
     bordercolor="#000000"
     borderopacity="0.25"
     inkscape:showpageshadow="2"
     inkscape:pageopacity="0.0"
     inkscape:pagecheckerboard="0"
     inkscape:deskcolor="#d1d1d1"
     inkscape:document-units="mm"
     inkscape:zoom="0.4866837"
     inkscape:cx="26.711394"
     inkscape:cy="-12.328336"
     inkscape:window-width="896"
     inkscape:window-height="245"
     inkscape:window-x="0"
     inkscape:window-y="33"
     inkscape:window-maximized="0"
     inkscape:current-layer="layer1" />
  <defs
     id="defs1" />
  <g
     inkscape:label="Capa 1"
     inkscape:groupmode="layer"
     id="layer1"
     transform="translate(-74.6125,-190.23542)">
    <path
       style="font-size:64px;line-height:0.9;font-family:'Poiret One';-inkscape-font-specification:'Poiret One';text-align:center;letter-spacing:-0.45px;word-spacing:0.52px;white-space:pre;fill:#483434;stroke-width:1.05571;stroke-linecap:round;stroke-linejoin:round;paint-order:stroke fill markers"
       d="m 74.6125,190.23542 h 0.347017 v 7.88675 H 74.6125 Z m 2.081783,7.88675 h -0.336501 v -4.73205 h 0.336501 v 0.95692 q 0.536299,-1.0726 1.829726,-1.0726 0.883316,0 1.482709,0.60991 0.599393,0.60991 0.599393,1.48271 v 2.75511 H 80.26961 v -2.75511 q 0,-0.72558 -0.515268,-1.26188 -0.504752,-0.5363 -1.230333,-0.5363 -0.725581,0 -1.282911,0.5363 -0.546815,0.5363 -0.546815,1.26188 z m 9.085208,-4.73205 h 0.304954 l -2.323962,4.86875 -2.334478,-4.86875 h 0.368048 l 1.997977,4.15368 z m 3.490875,4.85823 h -0.09464 q -0.998989,0 -1.745601,-0.74661 -0.736097,-0.75713 -0.736097,-1.75611 0,-0.99899 0.736097,-1.72457 0.736097,-0.7361 1.81921,-0.7361 1.083114,0 1.861273,0.86228 l -3.301919,3.25986 q 0.683518,0.54682 1.314458,0.54682 0.63094,0 1.125177,-0.28393 0.504752,-0.29444 0.830737,-0.77816 v 0.5363 q -0.746612,0.82022 -1.808695,0.82022 z m -0.115673,-4.66895 q -0.830737,0 -1.482709,0.65197 -0.641455,0.64146 -0.641455,1.48271 0,0.84125 0.55733,1.47219 l 3.060059,-3.03903 q -0.651971,-0.56784 -1.493225,-0.56784 z m 3.217474,4.54277 h -0.336501 v -4.73205 h 0.336501 v 0.95692 q 0.536299,-1.0726 1.829726,-1.0726 0.883316,0 1.482709,0.60991 0.599393,0.60991 0.599393,1.48271 v 2.75511 h -0.336501 v -2.75511 q 0,-0.72558 -0.515268,-1.26188 -0.504752,-0.5363 -1.230333,-0.5363 -0.725581,0 -1.282911,0.5363 -0.546815,0.5363 -0.546815,1.26188 z m 6.792794,-0.23135 v 0.29444 q -0.746612,0 -1.272396,-0.49424 -0.525783,-0.50475 -0.525783,-1.28291 v -4.92133 h 0.336501 v 1.91385 h 1.451162 v 0.29444 h -1.451162 v 2.71304 q 0,0.64146 0.420627,1.06209 0.431142,0.42062 1.041051,0.42062 z m 1.240509,-4.49019 v 4.72154 h -0.3365 v -4.72154 z m -0.16825,-1.15672 q -0.30495,0 -0.30495,-0.28392 0,-0.28393 0.30495,-0.28393 0.30496,0 0.30496,0.28393 0,0.28392 -0.30496,0.28392 z m 5.47833,1.14621 h 0.30496 l -2.32397,4.86875 -2.33447,-4.86875 h 0.36805 l 1.99797,4.15368 z m 5.84638,0 v 4.73205 h -0.3365 v -1.17776 q -0.29444,0.59939 -0.88331,0.94641 -0.58888,0.34702 -1.26188,0.34702 -1.03054,0 -1.76664,-0.72558 -0.73609,-0.7361 -0.73609,-1.75612 0,-1.02002 0.73609,-1.7456 0.7361,-0.7361 1.76664,-0.7361 0.673,0 1.28291,0.35754 0.62042,0.35753 0.86228,0.94641 v -1.18827 z m -4.64792,2.37654 q 0,0.88331 0.64145,1.53528 0.65198,0.64146 1.53529,0.64146 0.89383,0 1.52477,-0.64146 0.63094,-0.65197 0.63094,-1.53528 0,-0.89383 -0.64145,-1.54581 -0.63094,-0.65197 -1.51426,-0.65197 -0.88331,0 -1.53529,0.66249 -0.64145,0.65197 -0.64145,1.53529 z m 10.03261,-5.53124 v 7.58179 h 2.43964 v 0.30496 h -2.78666 v -7.88675 z m 7.92849,3.1547 v 4.73205 h -0.3365 v -1.17776 q -0.29444,0.59939 -0.88332,0.94641 -0.58887,0.34702 -1.26188,0.34702 -1.03053,0 -1.76663,-0.72558 -0.73609,-0.7361 -0.73609,-1.75612 0,-1.02002 0.73609,-1.7456 0.7361,-0.7361 1.76663,-0.7361 0.67301,0 1.28292,0.35754 0.62042,0.35753 0.86228,0.94641 v -1.18827 z m -4.64792,2.37654 q 0,0.88331 0.64145,1.53528 0.65197,0.64146 1.53529,0.64146 0.89383,0 1.52477,-0.64146 0.63094,-0.65197 0.63094,-1.53528 0,-0.89383 -0.64145,-1.54581 -0.63094,-0.65197 -1.51426,-0.65197 -0.88332,0 -1.53529,0.66249 -0.64145,0.65197 -0.64145,1.53529 z m 5.83586,2.35551 v -7.88675 h 0.3365 v 4.31142 q 0.28393,-0.57836 0.88332,-0.92538 0.60991,-0.34702 1.26188,-0.34702 1.04105,0 1.76663,0.7361 0.7361,0.72558 0.7361,1.7456 0,1.02002 -0.7361,1.75612 -0.72558,0.72558 -1.76663,0.72558 -0.63094,0 -1.23033,-0.3365 -0.5994,-0.34702 -0.91487,-0.92538 v 1.14621 z m 0.31547,-2.35551 q 0,0.88331 0.64146,1.53528 0.65197,0.64146 1.53529,0.64146 0.89383,0 1.52477,-0.64146 0.63094,-0.65197 0.63094,-1.53528 0,-0.89383 -0.64146,-1.54581 -0.63094,-0.65197 -1.51425,-0.65197 -0.88332,0 -1.53529,0.66249 -0.64146,0.65197 -0.64146,1.53529 z"
       id="text26-2-5"
       aria-label="Inventiva Lab" />
  </g>
</svg>
